<?xml version="1.0" standalone="no"?>
<!DOCTYPE svg PUBLIC "-//W3C//DTD SVG 1.1//EN" "http://www.w3.org/Graphics/SVG/1.1/DTD/svg11.dtd" >
<svg xmlns="http://www.w3.org/2000/svg">
<metadata></metadata>
<defs>
<font id="metamediumcyrlf-romanroman" horiz-adv-x="1146" >
<font-face units-per-em="2048" ascent="1638" descent="-410" />
<missing-glyph horiz-adv-x="460" />
<glyph horiz-adv-x="0" />
<glyph horiz-adv-x="682" />
<glyph unicode=" "  horiz-adv-x="460" />
<glyph unicode="&#x09;" horiz-adv-x="460" />
<glyph unicode="&#xa0;" horiz-adv-x="460" />
<glyph unicode="!" horiz-adv-x="585" d="M143 131q0 62 43.5 106t106.5 44q61 0 105 -44t44 -106q0 -63 -44.5 -107t-106.5 -44q-63 0 -105.5 44t-42.5 107zM154 1407l272 39l-49 -1012h-172z" />
<glyph unicode="&#x22;" horiz-adv-x="907" d="M143 905v547h209v-547h-209zM555 905v547h209v-547h-209z" />
<glyph unicode="#" horiz-adv-x="1138" d="M61 424v158h203l39 288h-182v158h205l57 422h170l-59 -422h229l59 422h168l-57 -422h184v-158h-205l-41 -288h185v-158h-205l-59 -424h-170l59 424h-229l-60 -424h-168l58 424h-181zM432 582h232l38 288h-229z" />
<glyph unicode="$" horiz-adv-x="1185" d="M82 98l90 183q101 -58 190 -86.5t203 -28.5q133 0 203 63t70 160q0 154 -195 211l-172 51q-103 31 -165.5 68.5t-100.5 91.5q-68 92 -68 219q0 169 108 276t296 134v155h147v-155q102 -6 202.5 -41.5t180.5 -93.5l-106 -166q-93 57 -168 82.5t-158 25.5 q-121 0 -181.5 -47.5t-60.5 -132.5q0 -130 164 -174l193 -53q169 -46 256 -150q94 -108 94 -260q0 -127 -65 -227.5t-166.5 -156t-223.5 -69.5v-180h-147v178q-223 6 -420 123z" />
<glyph unicode="%" horiz-adv-x="1708" d="M61 1083q0 159 92.5 255t245.5 96q160 0 252 -93t92 -260q0 -162 -92 -254q-94 -94 -250 -94q-158 0 -249 94t-91 256zM246 1090q0 -121 37.5 -173.5t119.5 -52.5q79 0 116.5 53t37.5 162q0 118 -38 171t-120 53q-153 0 -153 -213zM416 0l717 1413h163l-718 -1413h-162z M965 332q0 159 92.5 254.5t245.5 95.5q162 0 253 -93.5t91 -256.5q0 -158 -91.5 -254t-250.5 -96q-158 0 -249 94t-91 256zM1149 340q0 -123 37 -174t121 -51q79 0 116 52t37 161q0 119 -38 171t-119 52q-154 0 -154 -211z" />
<glyph unicode="&#x26;" horiz-adv-x="1411" d="M102 354q0 124 68.5 207.5t204.5 149.5q-101 81 -141.5 151.5t-40.5 161.5q0 144 109.5 239t279.5 95q172 0 284.5 -87.5t112.5 -232.5q0 -112 -71.5 -190t-209.5 -143l279 -271q29 73 29 250h188q0 -144 -16 -230t-54 -169l287 -285h-309l-109 109q-66 -66 -168 -101 t-227 -35q-238 0 -367 103t-129 278zM344 360q0 -104 69 -163.5t193 -59.5q171 0 254 99l-364 356q-152 -85 -152 -232zM426 1044q0 -52 31 -100.5t116 -126.5q168 83 168 221q0 72 -44 117t-113 45q-70 0 -114 -41.5t-44 -114.5z" />
<glyph unicode="'" horiz-adv-x="495" d="M143 905v547h209v-547h-209z" />
<glyph unicode="(" horiz-adv-x="620" d="M102 659q0 299 72 484q125 315 426 450l57 -125q-62 -42 -107.5 -83t-73.5 -80t-43 -66t-30 -63q-73 -170 -73 -512q0 -280 43 -453q38 -153 102.5 -256t186.5 -166l-60 -123q-139 51 -246.5 160t-169.5 260q-84 212 -84 573z" />
<glyph unicode=")" horiz-adv-x="622" d="M-41 -209q195 110 277 352q55 165 55 492q0 119 -8 201t-31 200q-28 146 -95.5 251.5t-193.5 180.5l57 125q133 -53 238 -157t170 -240q92 -193 92 -561q0 -129 -16.5 -264.5t-48.5 -231.5q-55 -162 -168.5 -286.5t-268.5 -186.5z" />
<glyph unicode="*" horiz-adv-x="933" d="M51 1092l55 161l279 -98v295h168v-295l278 94l52 -162l-279 -92l176 -241l-137 -105l-178 248l-172 -242l-135 103l176 237z" />
<glyph unicode="+" horiz-adv-x="1228" d="M102 475v213h408v410h209v-410h407v-213h-407v-409h-209v409h-408z" />
<glyph unicode="," horiz-adv-x="577" d="M102 -193q62 20 101 61.5t39 84.5q0 10 -12 22t-33 21q-40 15 -64 51.5t-24 85.5q0 69 46.5 116.5t114.5 47.5q80 0 132.5 -63t52.5 -162q0 -125 -76 -226t-195 -141z" />
<glyph unicode="-" horiz-adv-x="653" d="M102 453v209h449v-209h-449z" />
<glyph unicode="." horiz-adv-x="567" d="M123 137q0 68 46 115t112 47q68 0 115.5 -47.5t47.5 -114.5q0 -69 -47 -118.5t-112 -49.5q-67 0 -114.5 49.5t-47.5 118.5z" />
<glyph unicode="/" horiz-adv-x="901" d="M102 -309l539 1870h158l-541 -1870h-156z" />
<glyph unicode="0" d="M94 682q0 149 36.5 278t100 220.5t151.5 143.5t189 52q89 0 163 -31t125.5 -85t90 -122.5t60.5 -148.5t32.5 -157.5t10.5 -155.5q0 -317 -134 -512t-350 -195q-87 0 -160 32t-123.5 88t-88.5 126.5t-60 152t-32.5 159.5t-10.5 155zM346 684q0 -197 29 -319 q27 -116 78 -172t118 -56q64 0 114.5 51.5t78.5 141.5q39 127 39 342q0 177 -31 313q-54 221 -199 221q-118 0 -180 -172q-47 -125 -47 -350z" />
<glyph unicode="1" d="M160 1065l411 289h160v-1172h191v-182h-650v182h238v910q-108 -65 -139 -80q-106 -52 -156 -68z" />
<glyph unicode="2" d="M125 1178q115 100 232 149t251 49q171 0 281 -109.5t110 -277.5q0 -192 -192 -420q-19 -24 -47.5 -54.5t-50 -53t-61 -62.5t-58.5 -59l-30.5 -30.5l-31 -31l-27.5 -27.5t-27 -26.5t-22.5 -20.5t-19.5 -16.5t-14 -9.5q82 8 198 8h420l-49 -186h-835v150q152 130 327 323 q144 158 204 274t60 211q0 105 -57 162.5t-147 57.5q-57 0 -114 -21.5t-93 -45.5t-92 -67z" />
<glyph unicode="3" d="M98 1204q90 76 216.5 124t242.5 48q182 0 300 -98t118 -248q0 -220 -225 -303q113 -34 186.5 -117.5t73.5 -195.5q0 -132 -88 -241t-234 -169q-159 -67 -389 -67q-78 0 -139 8l-54 155q64 -12 134 -12q68 0 135 10.5t136 36t121 64t85 99.5t33 136q0 43 -11.5 76.5 t-28.5 55.5t-47 37t-54.5 23t-65.5 12t-65.5 4.5t-67.5 0.5h-68v178h119q266 0 266 183q0 81 -54.5 131.5t-150.5 50.5q-88 0 -155 -29.5t-154 -91.5z" />
<glyph unicode="4" d="M80 256v160l434 942h238l-349 -756q-15 -32 -36.5 -72.5t-35.5 -65.5l-14 -24q31 4 58 4h270l47 -2q-2 35 -2 45q0 76 10 203l25 293l176 45v-539l-2 -49q37 4 55 4h101v-188h-101l-59 4q6 -33 6 -78v-213l-215 -39v267l2 63q-29 -4 -72 -4h-536z" />
<glyph unicode="5" d="M170 119q88 -29 176 -29q173 0 287.5 94t114.5 236q0 116 -70.5 177.5t-190.5 61.5q-137 0 -280 -53l65 740h660l-35 -191h-416l-32 -332q76 11 114 11q184 0 307 -107t123 -287q0 -134 -73 -248.5t-197 -177.5q-154 -80 -352 -80q-77 0 -154 17z" />
<glyph unicode="6" d="M94 537q0 188 90 363t240 304q193 169 453 244l51 -156q-275 -99 -420 -268q-55 -64 -83 -119.5t-52 -142.5q46 40 113 62t141 22q179 0 301.5 -120.5t122.5 -299.5q0 -194 -134.5 -325.5t-332.5 -131.5q-217 0 -353.5 158t-136.5 410zM344 467q0 -61 12 -115.5 t37 -103.5t73 -78t112 -29q105 0 167 76.5t62 204.5q0 106 -55.5 176t-159.5 70q-112 0 -242 -86q-6 -105 -6 -115z" />
<glyph unicode="7" d="M147 1147l52 199h868l-43 -207q-220 -332 -344 -590q-154 -323 -188 -567l-259 -66q94 407 312 817q139 263 272 418q-72 -4 -129 -4h-541z" />
<glyph unicode="8" d="M76 348q0 122 72.5 216.5t189.5 135.5q-95 39 -157 126t-62 188q0 75 27 137t72 103t106 69t126 40.5t134 12.5q194 0 315 -93.5t121 -244.5q0 -213 -272 -315q160 -66 241.5 -147.5t81.5 -202.5q0 -95 -46.5 -175t-121 -130.5t-164.5 -78.5t-180 -28q-92 0 -176 23 t-153.5 68.5t-111.5 122t-42 173.5zM319 365q0 -107 71.5 -171.5t191.5 -64.5q107 0 174 57t67 148q0 95 -67 147q-71 57 -264 137q-173 -92 -173 -253zM346 1034q0 -34 16 -65.5t39 -54t58 -44t62.5 -34.5t62.5 -27q196 98 196 229q0 82 -57 128t-160 46q-98 0 -157.5 -49 t-59.5 -129z" />
<glyph unicode="9" d="M102 907q0 202 138 336.5t344 134.5q113 0 203 -42t147 -115t87 -168t30 -205q0 -191 -79.5 -365t-230.5 -315q-105 -99 -238 -174t-265 -103l-119 138q88 17 166 55q124 57 230.5 145.5t170.5 192.5q30 51 49 98q-96 -55 -205 -55q-183 0 -305.5 126t-122.5 316z M350 911q0 -125 60.5 -197.5t164.5 -72.5q109 0 209 90q21 77 21 156q0 145 -62.5 230t-167.5 85q-101 0 -163 -79.5t-62 -211.5z" />
<glyph unicode=":" horiz-adv-x="604" d="M143 129q0 68 46.5 116.5t113.5 47.5q64 0 110 -48t46 -116q0 -66 -47 -112t-113 -46q-65 0 -110.5 46t-45.5 112zM145 758q0 67 46 114.5t112 49.5q65 0 111.5 -47t46.5 -113q0 -67 -47 -113.5t-113 -46.5q-65 0 -110.5 46t-45.5 110z" />
<glyph unicode=";" horiz-adv-x="641" d="M143 -199q62 21 101 62t39 82q0 17 -21 32t-45.5 26.5t-45.5 43.5t-21 80q0 70 46.5 118t114.5 48q82 0 134.5 -63.5t52.5 -163.5q0 -123 -77 -224t-196 -141zM152 760q0 66 45.5 114t109.5 48q66 1 114 -47.5t48 -114.5q0 -65 -46.5 -112.5t-111.5 -47.5 q-66 0 -112.5 47.5t-46.5 112.5z" />
<glyph unicode="&#x3c;" horiz-adv-x="753" d="M41 612l451 590l180 -145l-338 -445l338 -446l-180 -141z" />
<glyph unicode="=" horiz-adv-x="1300" d="M102 332v207h1096v-207h-1096zM102 705v206h1096v-206h-1096z" />
<glyph unicode="&#x3e;" horiz-adv-x="751" d="M82 166l336 446l-336 445l180 145l449 -590l-449 -587z" />
<glyph unicode="?" horiz-adv-x="948" d="M82 1296q63 56 163 99t222 43q152 0 255 -89t103 -237q0 -39 -8.5 -75.5t-19.5 -63t-32 -53.5t-34.5 -42t-39.5 -35t-34 -25.5t-30 -20.5q-138 -93 -138 -260q0 -33 7 -80h-193q-16 72 -16 127q0 175 159 303q11 9 41 30t44 33t33 33.5t27.5 46.5t8.5 55 q0 75 -50.5 116.5t-127.5 41.5q-127 0 -242 -92zM270 131q0 64 44.5 108t109.5 44q62 0 108 -44t46 -108q0 -65 -46 -111.5t-110 -46.5q-63 0 -107.5 46.5t-44.5 111.5z" />
<glyph unicode="@" horiz-adv-x="1865" d="M102 420q0 178 64 337t175 274t269.5 182t339.5 67q170 0 319.5 -51t258.5 -143t172 -227t63 -294q0 -263 -135.5 -428.5t-329.5 -165.5q-114 0 -171 50.5t-64 128.5q-57 -68 -138.5 -111t-168.5 -43q-47 0 -91.5 18.5t-80.5 53.5t-58 93.5t-22 131.5q0 99 23 191.5 t69.5 173t113 141t159 95t200.5 34.5q142 0 281 -74q-16 -52 -30 -106t-28.5 -117.5t-23 -103t-25 -117.5t-22.5 -107q-24 -119 -5.5 -156.5t89.5 -37.5q110 0 189 131t79 325q0 118 -45 224t-124.5 184t-197.5 124t-256 46q-145 0 -270 -61t-208 -161.5t-130 -231 t-47 -269.5q0 -177 82.5 -319t223.5 -220t312 -78q162 0 295 45l37 -139q-142 -47 -332 -47q-130 0 -250 31.5t-222 95t-177.5 153t-118.5 212.5t-43 266zM692 285q0 -79 26 -109.5t81 -30.5q73 0 153 71t107 196l80 366q-35 15 -84 15q-92 0 -164.5 -47t-114.5 -123 t-63 -162.5t-21 -175.5z" />
<glyph unicode="A" horiz-adv-x="1181" d="M-4 0l465 1417h272l453 -1417h-258l-115 373h-459l-114 -373h-244zM412 569h348q-110 372 -168 615q-52 -186 -180 -615z" />
<glyph unicode="B" horiz-adv-x="1230" d="M164 0v1417h375q158 0 232 -14t140 -55q160 -103 160 -279q0 -115 -63 -195t-181 -114q85 -20 146 -59.5t93.5 -89.5t47 -101.5t14.5 -108.5q0 -207 -139.5 -304t-413.5 -97h-411zM399 193h209q129 0 193.5 63.5t64.5 165.5q0 76 -37 134t-96 75q-42 12 -131 12h-203 v-450zM399 836h195q70 0 106 10t68 43q55 58 55 141q0 62 -31.5 110.5t-82.5 67.5q-49 17 -134 17h-176v-389z" />
<glyph unicode="C" horiz-adv-x="1161" d="M102 684q0 249 95 428q80 153 218.5 239.5t303.5 86.5q103 0 196 -29.5t156 -81.5l-108 -153q-109 79 -242 79q-91 0 -164 -44t-119 -126q-73 -128 -73 -370q0 -229 55 -348q45 -99 127.5 -150t187.5 -51q140 0 254 90l111 -150q-164 -124 -387 -124q-279 0 -449 204 q-162 197 -162 500z" />
<glyph unicode="D" horiz-adv-x="1271" d="M164 0v1417h295q204 0 331.5 -44t225.5 -156q153 -178 153 -512q0 -315 -149 -506q-89 -114 -198 -156.5t-308 -42.5h-350zM399 193h158q184 0 267 120.5t83 368.5q0 151 -19 254.5t-71 173.5q-49 67 -109.5 95t-156.5 28h-152v-1040z" />
<glyph unicode="E" horiz-adv-x="1021" d="M164 0v1417h786l-30 -192h-517v-387h433v-193h-433v-444h568v-201h-807z" />
<glyph unicode="F" horiz-adv-x="882" d="M164 0v1417h749l-28 -192h-486v-385h396v-193h-396v-647h-235z" />
<glyph unicode="G" horiz-adv-x="1308" d="M102 698q0 430 267 629q145 111 350 111q247 0 422 -150l-119 -143q-139 108 -299 108q-358 0 -358 -563q0 -302 104 -424q42 -50 113.5 -78t154.5 -28q107 0 189 45v368h-242l-33 193h514v-668q-195 -118 -442 -118q-301 0 -463 200q-82 100 -120 224.5t-38 293.5z" />
<glyph unicode="H" horiz-adv-x="1282" d="M164 0v1417h235v-569h484v569h235v-1417h-235v655h-484v-655h-235z" />
<glyph unicode="I" horiz-adv-x="569" d="M164 0v1417h242v-1417h-242z" />
<glyph unicode="J" horiz-adv-x="579" d="M-18 -182q56 30 100 73.5t65 85.5q19 39 26 94.5t7 170.5v1175h236v-1155q0 -169 -18 -249t-66 -146q-83 -115 -240 -174z" />
<glyph unicode="K" horiz-adv-x="1169" d="M164 0v1417h235v-1417h-235zM406 756l460 661h291l-491 -657l524 -760h-307z" />
<glyph unicode="L" horiz-adv-x="948" d="M164 0v1417h235v-1224h529l-39 -193h-725z" />
<glyph unicode="M" horiz-adv-x="1671" d="M123 0l129 1417h313l217 -803q28 -100 54 -241q15 105 51 237l223 807h313l125 -1417h-231l-66 879q-10 150 -10 245q-32 -150 -55 -227l-258 -897h-201l-235 858q-40 140 -62 268q0 -65 -14 -270l-62 -856h-231z" />
<glyph unicode="N" horiz-adv-x="1288" d="M164 0v1417h266l344 -692q47 -93 88.5 -202.5t52.5 -162.5l7 7q-21 252 -21 403l-4 647h227v-1417h-247l-318 666q-126 262 -184 419l-6 -6q10 -113 14 -393l8 -686h-227z" />
<glyph unicode="O" horiz-adv-x="1388" d="M102 711q0 343 161 535t431 192q146 0 260 -55.5t186 -154.5t109 -230.5t37 -288.5q0 -335 -153.5 -532t-427.5 -197q-148 0 -264 55t-189.5 153.5t-111.5 231t-38 291.5zM365 727q0 -283 79.5 -425t260.5 -142q161 0 240 127.5t79 408.5q0 107 -9.5 190.5t-32.5 155 t-59.5 117.5t-93 72t-131.5 26q-177 0 -255 -133.5t-78 -396.5z" />
<glyph unicode="P" horiz-adv-x="1136" d="M164 0v1417h377q149 0 223.5 -15t136.5 -52q94 -56 144.5 -148t50.5 -209q0 -136 -61.5 -240t-165.5 -158t-232 -54h-238v-541h-235zM399 729h181q130 0 192 62t62 190q0 117 -58 178q-67 70 -196 70h-181v-500z" />
<glyph unicode="Q" horiz-adv-x="1392" d="M102 711q0 342 161 534.5t429 192.5q190 0 325 -91.5t202 -255t67 -384.5q0 -233 -75 -398t-216 -254q51 -20 156 -84q96 -59 199 -59q44 0 88 8l-64 -158q-51 -22 -110 -22q-121 0 -275 102q-152 101 -293 138q-192 0 -328 96.5t-201 259t-65 375.5zM365 725 q0 -157 22.5 -267.5t67.5 -175t106.5 -93.5t145.5 -29q106 0 174.5 51.5t105.5 170.5t37 312q0 287 -74 425t-252 138q-175 0 -254 -131.5t-79 -400.5z" />
<glyph unicode="R" horiz-adv-x="1173" d="M164 0v1417h432q115 0 205 -32t145 -88t83 -128t28 -157q0 -160 -96.5 -274.5t-255.5 -114.5q64 -34 219 -283l209 -340h-281l-123 219q-75 133 -130 213t-112 137q-22 22 -40.5 32t-47.5 11v-612h-235zM399 778h117q92 0 146 14t86 46q63 63 63 174q0 110 -67 163.5 t-220 53.5h-125v-451z" />
<glyph unicode="S" horiz-adv-x="1202" d="M92 106l90 183q102 -59 191.5 -88t191.5 -29q131 0 205 59.5t74 165.5q0 72 -51.5 122t-159.5 81l-152 43q-199 57 -274 170q-60 88 -60 205q0 187 134 303.5t348 116.5q256 0 448 -135l-106 -166q-99 59 -174.5 83.5t-159.5 24.5q-105 0 -168 -52.5t-63 -139.5 q0 -65 42 -103t146 -69l168 -50q161 -46 254.5 -146.5t93.5 -250.5q0 -90 -36 -171t-104 -144.5t-175 -101t-238 -37.5q-257 0 -465 126z" />
<glyph unicode="T" horiz-adv-x="970" d="M31 1221v196h981l-31 -196h-356v-1221h-236v1221h-358z" />
<glyph unicode="U" horiz-adv-x="1288" d="M154 399v1018h235v-948q0 -159 59 -224t193 -65q258 0 258 289v948h236v-1016q0 -196 -130 -308.5t-362 -112.5q-135 0 -233 33t-152.5 92.5t-79 131.5t-24.5 162z" />
<glyph unicode="V" horiz-adv-x="1142" d="M-20 1417h258l256 -803q46 -140 73 -284h2q43 162 84 284l265 803h245l-487 -1423h-219z" />
<glyph unicode="W" horiz-adv-x="1671" d="M10 1417h252l141 -659q50 -230 76 -453h4q35 214 80 436l148 676h264l147 -704q41 -205 70 -400h4q40 246 84 461l135 643h246l-336 -1425h-270l-146 657q-47 221 -69 410h-4q-21 -139 -74 -404l-137 -663h-277z" />
<glyph unicode="X" horiz-adv-x="1105" d="M-20 0l434 760l-381 657h286l228 -438l223 438h279l-361 -641l438 -776h-282l-293 561l-283 -561h-288z" />
<glyph unicode="Y" horiz-adv-x="1060" d="M-41 1417h285l219 -456q24 -50 69 -170q13 32 78 178l217 448h275l-457 -846v-571h-235v573z" />
<glyph unicode="Z" horiz-adv-x="1087" d="M82 0v172l553 920q36 63 94 141q-68 -8 -154 -8h-466l53 192h831v-178l-551 -930q-34 -58 -82 -121q77 5 142 5h504l-60 -193h-864z" />
<glyph unicode="[" horiz-adv-x="591" d="M164 -317v1818h387v-155h-186v-1512h186v-151h-387z" />
<glyph unicode="\" horiz-adv-x="839" d="M20 1489l187 63l612 -1591l-188 -61z" />
<glyph unicode="]" horiz-adv-x="591" d="M41 -166h186v1512h-186v155h387v-1818h-387v151z" />
<glyph unicode="^" horiz-adv-x="1228" d="M102 651l398 799h229l397 -799h-229l-283 586l-282 -586h-230z" />
<glyph unicode="_" horiz-adv-x="1024" d="M0 -154h1024v-102h-1024v102z" />
<glyph unicode="`" horiz-adv-x="643" d="M61 1356l103 190l418 -270l-70 -129z" />
<glyph unicode="a" horiz-adv-x="1054" d="M92 281q0 179 130.5 269.5t381.5 90.5h70v55q0 97 -28.5 140t-115.5 43q-42 0 -89.5 -12.5t-85 -29.5t-68.5 -34.5t-49 -30.5l-17 -12l-100 162q118 74 221 107.5t219 33.5q248 0 316 -172q13 -32 15 -80q1 -27 2 -77q0 -41 -1 -97l-4 -297v-22q1 -90 15 -132 q16 -46 75 -86l-117 -143q-104 41 -141 139q-60 -68 -128.5 -95.5t-156.5 -27.5q-172 0 -258 83.5t-86 224.5zM336 293q0 -74 38 -115t105 -41q54 0 103.5 28t83.5 77l4 245q-25 2 -41 2q-163 0 -228 -47t-65 -149z" />
<glyph unicode="b" horiz-adv-x="1140" d="M137 0q27 70 27 231v977q0 164 -27 250l234 51q16 -99 16 -206v-240q0 -30 -1.5 -54.5t-3.5 -34.5l-1 -9l8 -2q103 100 246 100q186 0 294.5 -141.5t108.5 -384.5q0 -249 -115.5 -404.5t-297.5 -155.5q-156 0 -252 119q-12 -66 -29 -96h-207zM387 258q86 -90 199 -90 q107 0 154.5 84.5t47.5 279.5q0 60 -5 108t-18 92.5t-35 74.5t-57.5 47.5t-82.5 17.5q-119 0 -203 -104v-510z" />
<glyph unicode="c" horiz-adv-x="935" d="M102 506q0 136 38.5 245t103.5 175.5t145.5 101.5t169.5 35q87 0 153.5 -25t133.5 -88l-113 -149q-89 80 -174 80q-113 0 -164 -105q-43 -87 -43 -289q0 -206 70 -282q54 -60 137 -60q106 0 209 103l106 -137q-72 -72 -150 -105t-181 -33q-211 0 -326 140.5t-115 392.5z " />
<glyph unicode="d" horiz-adv-x="1136" d="M102 514q0 286 160 442q114 109 275 109q132 0 217 -94l4 2q-8 54 -8 168v368l223 -34v-1115q0 -263 33 -360h-207q-16 41 -19 80q-103 -103 -254 -103q-171 0 -278 107q-66 64 -106 174t-40 256zM352 512q0 -223 70 -293q51 -51 137 -51q127 0 191 98v525 q-76 83 -189 83q-80 0 -129 -49q-80 -80 -80 -313z" />
<glyph unicode="e" horiz-adv-x="1050" d="M102 518q0 136 30.5 232.5t98.5 173.5q122 139 318 139q167 0 285 -107q69 -63 102 -168t33 -282v-47h-619v-19q0 -58 12 -107t39.5 -93.5t79.5 -69.5t125 -25q140 0 258 103l88 -137q-164 -138 -372 -138q-220 0 -349 147t-129 398zM352 627h383q0 125 -50.5 196.5 t-135.5 71.5q-95 0 -146 -70.5t-51 -197.5z" />
<glyph unicode="f" horiz-adv-x="628" d="M68 881v155h94q-4 62 -4 101q0 95 17 163t67 119q84 86 237 86q127 0 232 -59l-74 -146q-71 37 -121 37q-55 0 -92 -32q-39 -39 -39 -127v-142h270l-57 -155h-211v-881h-223v881h-96z" />
<glyph unicode="g" horiz-adv-x="1097" d="M82 -111q0 56 20 111h199q-4 -24 -4 -51q0 -78 43 -119q55 -53 184 -53q148 0 211 67q37 40 37 95t-35 90q-45 39 -147 49q-66 4 -96 4q-86 0 -129 4q-131 10 -183 55q-37 35 -37 95q0 63 41 104q47 47 156 78q-79 22 -156 86q-80 80 -80 209q0 133 87 227q52 57 137 90 t188 33q83 0 207 -33q83 -20 115 -20q104 0 184 71l104 -143q-79 -68 -180 -68q-28 0 -78 11q66 -78 66 -179q0 -124 -84 -208q-56 -56 -138 -84q-78 -27 -159 -27h-12q-1 0 -10 -4t-20.5 -8.5t-28 -12.5t-29.5 -16q-52 -31 -52 -57q0 -16 11 -27t92 -14l106 -2 q68 -1 111.5 -5.5t104.5 -27t102 -64.5q76 -76 76 -198q0 -133 -86 -219q-121 -121 -379 -121q-277 0 -391 114q-68 68 -68 168zM340 713q0 -88 47 -133q45 -43 131 -43q88 0 133 45t45 133t-45 133t-133 45q-86 0 -133 -47q-45 -47 -45 -133z" />
<glyph unicode="h" horiz-adv-x="1155" d="M143 1458l228 49q20 -84 20 -243v-220l-4 -116q150 135 318 135q88 0 155.5 -36.5t95.5 -90.5q20 -38 27.5 -81.5t7.5 -121.5v-733h-223v707q0 93 -31.5 129t-99.5 36q-59 0 -126.5 -34.5t-123.5 -92.5v-745h-223v1233q0 132 -21 225z" />
<glyph unicode="i" horiz-adv-x="555" d="M131 1339q0 63 43.5 107.5t106.5 44.5q61 0 104 -44t43 -108q0 -62 -44.5 -105.5t-107.5 -43.5q-61 0 -103 43.5t-42 105.5zM166 0v1020l223 41v-1061h-223z" />
<glyph unicode="j" horiz-adv-x="555" d="M25 -303q80 56 109.5 127t29.5 199v997l223 41v-1036q0 -215 -76 -312q-76 -95 -194 -147zM127 1339q0 62 44 107t105 45t105.5 -44t44.5 -104q0 -64 -44.5 -108.5t-107.5 -44.5q-62 0 -104.5 43t-42.5 106z" />
<glyph unicode="k" horiz-adv-x="1046" d="M141 1456l226 55q20 -110 20 -274v-1237h-223v1206q0 135 -23 250zM403 586l308 450h272l-354 -438l438 -598h-272z" />
<glyph unicode="l" horiz-adv-x="557" d="M143 1456l226 51q18 -71 18 -284v-879q0 -98 5 -131.5t18 -54.5q10 -14 32 -19.5t47 2.5l37 -139q-64 -25 -135 -25q-47 0 -84 12.5t-60.5 29.5t-40 46t-24.5 52t-12.5 57t-5 51t-0.5 45v883q0 174 -21 303z" />
<glyph unicode="m" horiz-adv-x="1634" d="M127 1006l205 57q31 -52 37 -131q128 131 274 131q75 0 134.5 -33t113.5 -119q149 152 307 152q270 0 270 -303v-760h-223v717q0 90 -22.5 122.5t-83.5 32.5q-90 0 -215 -118v-754h-215v713q0 90 -23.5 124.5t-85.5 34.5q-102 0 -213 -102v-770h-223v743q0 182 -37 263z " />
<glyph unicode="n" horiz-adv-x="1118" d="M125 1008l205 57q37 -70 37 -145q86 73 161 108t156 35q124 0 197 -74t73 -213v-776h-223v692q0 103 -26 141.5t-91 38.5q-49 0 -112.5 -32.5t-114.5 -83.5v-756h-223v762q0 146 -39 246z" />
<glyph unicode="o" horiz-adv-x="1099" d="M92 518q0 249 123.5 397t329.5 148q218 0 340.5 -148.5t122.5 -398.5q0 -251 -124 -397t-335 -146t-334 147t-123 398zM342 535q0 -219 51.5 -306.5t157.5 -87.5q102 0 154.5 89.5t52.5 283.5q0 142 -27 228.5t-72 119.5t-114 33q-106 0 -154.5 -85.5t-48.5 -274.5z" />
<glyph unicode="p" horiz-adv-x="1126" d="M143 1026l207 37q17 -73 17 -123q105 123 276 123q152 0 252 -100q139 -139 139 -433q0 -311 -149 -456q-105 -101 -267 -101q-132 0 -243 86q6 -71 6 -141v-303l-217 -55v1208q0 164 -21 258zM381 256q96 -92 207 -92q68 0 114 43q32 29 52 69.5t27.5 89.5t9.5 79t2 73 q0 233 -72 307q-44 47 -117 47q-122 0 -223 -106v-510z" />
<glyph unicode="q" horiz-adv-x="1136" d="M102 494q0 269 111 419t307 150q81 0 153 -34t111 -93q2 54 19 100h194q-24 -94 -24 -295v-1128l-217 -55v383l4 137q-105 -105 -244 -105q-85 0 -158.5 32.5t-131 95t-91 163.5t-33.5 230zM344 535q0 -107 15 -180.5t44.5 -114.5t67.5 -58.5t90 -17.5q58 0 110.5 31.5 t84.5 80.5v494q-34 46 -88.5 74t-112.5 28q-211 0 -211 -337z" />
<glyph unicode="r" horiz-adv-x="696" d="M127 1010l207 53q39 -73 39 -164q120 166 264 166q44 0 80 -16l-70 -209q-40 14 -65 14q-69 0 -124.5 -45t-70.5 -109v-700h-223v731q0 178 -37 279z" />
<glyph unicode="s" horiz-adv-x="970" d="M72 86l80 162q189 -109 335 -109q74 0 121 41t47 105q0 59 -39.5 92.5t-128.5 52.5l-125 27q-117 25 -182 100t-65 184q0 146 106.5 234t278.5 88q173 0 342 -90l-74 -156q-141 78 -254 78q-73 0 -115.5 -33t-42.5 -92q0 -49 31 -77t109 -48l129 -33q264 -67 264 -288 q0 -157 -116.5 -255t-303.5 -98q-190 0 -397 115z" />
<glyph unicode="t" horiz-adv-x="677" d="M49 881v155h115q0 178 10 256l232 56q-19 -160 -19 -312h248l-60 -155h-188v-582q0 -97 26.5 -131.5t100.5 -34.5q36 0 94 21l29 -136q-99 -45 -203 -45q-73 0 -126.5 20.5t-84 58t-45 84.5t-14.5 104v641h-115z" />
<glyph unicode="u" horiz-adv-x="1110" d="M154 322v698l223 41v-694q0 -54 5 -90.5t19.5 -69t44.5 -48.5t76 -16q56 0 115.5 40.5t85.5 95.5v741l223 41v-780q0 -44 6.5 -81t16 -59.5t19 -38.5t16.5 -22l6 -6l-156 -107q-66 48 -90 133q-112 -127 -295 -127q-85 0 -151.5 28t-106.5 75q-31 37 -44 93t-13 153z" />
<glyph unicode="v" horiz-adv-x="968" d="M10 1028l232 33l180 -559q38 -124 63 -232h2q23 116 64 240l172 526h235l-376 -1040h-199z" />
<glyph unicode="w" horiz-adv-x="1429" d="M20 1022l224 31l112 -502q33 -139 52 -272h4q20 113 63 278l133 479h221l117 -467q27 -105 68 -295h2q23 143 53 279l107 483h233l-293 -1040h-211l-127 477q-23 84 -67 283h-2q-22 -107 -70 -293l-125 -467h-211z" />
<glyph unicode="x" horiz-adv-x="976" d="M-20 0l385 561l-299 445l243 49q114 -190 189 -336q24 56 83 171.5t81 145.5h262l-306 -471l379 -565h-282q-26 41 -117.5 198.5t-108.5 188.5q-29 -58 -112 -201t-113 -186h-284z" />
<glyph unicode="y" horiz-adv-x="989" d="M10 1020l230 39l190 -631q30 -105 55 -231h4q36 145 76 278l172 561h242l-383 -1106q-57 -167 -141 -256q-46 -47 -100.5 -71t-145.5 -45l-74 145q118 32 172 90q70 70 109 207h-72q-37 139 -88 293z" />
<glyph unicode="z" horiz-adv-x="940" d="M72 0v150l520 727h-479v159h733v-159l-492 -717h514l-65 -160h-731z" />
<glyph unicode="{" horiz-adv-x="712" d="M41 498v186q22 1 47 6.5t53.5 19.5t51.5 33.5t38 51t15 69.5v359q0 135 68.5 206.5t172.5 71.5h185v-186h-101q-40 0 -66.5 -12.5t-38.5 -36t-16 -45.5t-4 -52v-344q0 -64 -18.5 -110t-50 -70t-60 -35.5t-61.5 -15.5v-8q26 -3 48.5 -8.5t50 -21t46.5 -39t32 -64.5t13 -95 v-344q0 -30 4 -52t16 -45.5t38.5 -36.5t66.5 -13h101v-184h-185q-103 0 -172 71t-69 209v356q0 38 -15 70t-38 51t-51.5 32.5t-53.5 19t-47 6.5z" />
<glyph unicode="|" horiz-adv-x="532" d="M164 -424v1974h205v-1974h-205z" />
<glyph unicode="}" horiz-adv-x="712" d="M41 -133h98q41 0 68 13t39 36.5t16 45.5t4 52v342q0 55 13.5 97t32.5 65.5t47.5 38.5t50.5 20.5t49 8.5v10q-193 21 -193 227v346q0 30 -4 52t-16 45.5t-39 36t-68 12.5h-98v186h186q100 0 170 -72t70 -208v-357q0 -47 21.5 -83.5t55 -56t66.5 -29.5t62 -11v-186 q-23 -1 -48.5 -6.5t-54 -19t-51 -32.5t-37 -50.5t-14.5 -70.5v-358q0 -137 -68.5 -207.5t-173.5 -70.5h-184v184z" />
<glyph unicode="~" horiz-adv-x="1138" d="M102 621q21 37 42 65t51.5 55.5t70.5 42.5t88 15q76 0 219 -66q17 -7 55.5 -25t59.5 -27t51 -17.5t54 -8.5q30 0 55.5 11t49.5 36t36.5 41.5t36.5 51.5l65 -170q-46 -82 -104 -131.5t-148 -49.5q-33 0 -76.5 12.5t-64.5 21t-78 34.5q-9 4 -37.5 17.5t-39.5 18.5t-35 14.5 t-38.5 14t-33.5 8t-35 3.5q-56 0 -96.5 -37t-81.5 -102z" />
<glyph unicode="&#xa9;" horiz-adv-x="1720" d="M102 727q0 156 60.5 297.5t162 243t242 161.5t293.5 60t293.5 -60t242 -161.5t162 -243t60.5 -297.5q0 -157 -60.5 -298.5t-162 -243t-241.5 -161t-294 -59.5t-294 59.5t-241.5 161t-162 243t-60.5 298.5zM276 727q0 -167 78 -308.5t212.5 -223.5t293.5 -82t294 82 t213.5 223.5t78.5 308.5t-78.5 307.5t-213 221.5t-294.5 81t-294 -81t-212 -221.5t-78 -307.5zM500 711q0 158 57 266q49 94 136.5 146.5t191.5 52.5q62 0 120.5 -19t94.5 -49l-78 -117q-65 47 -135 47q-43 0 -83 -20t-63 -53q-47 -70 -47 -220q0 -168 35 -229 q53 -96 164 -96q79 0 147 55l78 -108q-99 -80 -237 -80q-175 0 -279 119q-102 117 -102 305z" />
<glyph unicode="&#xab;" horiz-adv-x="1038" d="M61 504l310 465l151 -103l-235 -362l235 -361l-151 -102zM514 504l311 465l152 -103l-238 -362l238 -361l-152 -102z" />
<glyph unicode="&#xad;" horiz-adv-x="653" d="M102 453v209h449v-209h-449z" />
<glyph unicode="&#xae;" horiz-adv-x="1720" d="M102 727q0 156 60.5 297.5t162 243t242 161.5t293.5 60t293.5 -60t242 -161.5t162 -243t60.5 -297.5q0 -157 -60.5 -298.5t-162 -243t-241.5 -161t-294 -59.5t-294 59.5t-241.5 161t-162 243t-60.5 298.5zM276 727q0 -167 78 -308.5t212.5 -223.5t293.5 -82t294 82 t213.5 223.5t78.5 308.5t-78.5 307.5t-213 221.5t-294.5 81t-294 -81t-212 -221.5t-78 -307.5zM594 305v854h317q114 0 183 -68.5t69 -181.5q0 -96 -56 -164.5t-134 -70.5q23 -20 35 -37q22 -27 73 -110t91 -153l40 -69h-202q-57 98 -80 141q-65 119 -92 159.5t-50 49.5 q-14 7 -26 7v-357h-168zM762 791h57q97 0 129 28q33 33 33 86q0 81 -61 105q-36 12 -97 12h-61v-231z" />
<glyph unicode="&#xb4;" horiz-adv-x="643" d="M61 1276l418 270l103 -190l-451 -209z" />
<glyph unicode="&#xbb;" horiz-adv-x="1040" d="M61 143l240 361l-240 362l154 103l309 -465l-309 -463zM516 143l238 361l-238 362l152 103l311 -465l-311 -463z" />
<glyph unicode="&#x401;" horiz-adv-x="1021" d="M164 0v1417h786l-30 -192h-521v-387h437v-193h-433v-444h568v-201h-807zM205 1653q0 58 39.5 98.5t95.5 40.5t95.5 -40.5t39.5 -98.5t-39.5 -100t-95.5 -42t-95.5 42t-39.5 100zM639 1653q0 58 40 98.5t97 40.5q55 0 95 -40.5t40 -98.5t-40.5 -100t-96.5 -42t-95.5 42 t-39.5 100z" />
<glyph unicode="&#x402;" horiz-adv-x="1349" d="M-20 1221v196h983l-29 -196h-381v-394q148 68 276 68q170 0 271 -94q127 -118 127 -365q0 -233 -113 -358q-93 -103 -248 -103q-96 0 -204 45l40 170q57 -36 132 -36q69 0 104 49q18 26 27 70.5t10.5 74.5t1.5 82q0 50 -2 81t-13 70.5t-32 65.5q-52 64 -158 64 q-107 0 -219 -56v-655h-236v1221h-337z" />
<glyph unicode="&#x403;" horiz-adv-x="964" d="M164 0v1417h770l-29 -192h-506v-1225h-235zM297 1604l418 270l102 -191l-450 -208z" />
<glyph unicode="&#x404;" horiz-adv-x="1169" d="M61 682q0 79 6 143.5t23.5 149.5t59.5 163.5t106 141.5q161 158 412 158q216 0 379 -117l-105 -160q-114 92 -276 92q-150 0 -236 -86q-102 -102 -102 -323v-19h454v-184h-458v-18q0 -262 92 -367q83 -92 246 -92q176 0 305 110l100 -151q-70 -62 -172 -100 q-117 -43 -246 -43q-53 0 -99 5t-104 20t-114.5 49t-104.5 85q-54 57 -89.5 128.5t-51 148.5t-20.5 136t-5 130z" />
<glyph unicode="&#x405;" horiz-adv-x="1202" d="M92 106l90 183q102 -59 191.5 -88t191.5 -29q131 0 205 59.5t74 165.5q0 72 -51.5 122t-159.5 81l-152 43q-199 57 -274 170q-60 88 -60 205q0 187 134 303.5t348 116.5q256 0 448 -135l-106 -166q-99 59 -174.5 83.5t-159.5 24.5q-105 0 -168 -52.5t-63 -139.5 q0 -65 42 -103t146 -69l168 -50q161 -46 254.5 -146.5t93.5 -250.5q0 -90 -36 -171t-104 -144.5t-175 -101t-238 -37.5q-257 0 -465 126z" />
<glyph unicode="&#x406;" horiz-adv-x="569" d="M164 0v1417h242v-1417h-242z" />
<glyph unicode="&#x407;" horiz-adv-x="569" d="M18 1655q0 59 34.5 101t82.5 42t83.5 -42t35.5 -101q0 -58 -36 -101t-83 -43t-82 43t-35 101zM164 0v1417h242v-1417h-242zM313 1655q0 60 35.5 101.5t85.5 41.5q48 0 82.5 -42t34.5 -101t-35 -101.5t-84 -42.5q-48 0 -83.5 43t-35.5 101z" />
<glyph unicode="&#x408;" horiz-adv-x="579" d="M-18 -182q56 30 100 73.5t65 85.5q19 39 26 94.5t7 170.5v1175h236v-1155q0 -169 -18 -249t-66 -146q-83 -115 -240 -174z" />
<glyph unicode="&#x409;" horiz-adv-x="1845" d="M-20 147l40 11q78 21 125 65q26 24 44.5 57.5t29 61.5t19.5 81.5t12 80.5t10 96q27 288 35 586l6 231h752v-569h196q66 0 114.5 -4t122 -26t126.5 -64q68 -54 109.5 -139.5t41.5 -192.5q0 -89 -29.5 -164.5t-78.5 -124.5q-133 -133 -426 -133h-412v1225h-301l-10 -230 q-13 -316 -49 -587q-6 -47 -12 -77.5t-19 -78t-35.5 -88t-54.5 -72.5q-84 -82 -250 -102l-63 -8zM1053 193h153q165 0 232 65q63 63 63 168t-61 166q-38 38 -87.5 50.5t-113.5 12.5h-186v-462z" />
<glyph unicode="&#x40a;" horiz-adv-x="1910" d="M164 0v1417h235v-569h484v569h235v-569h197q66 0 114.5 -4t121.5 -26t126 -64q69 -54 110.5 -139.5t41.5 -192.5q0 -89 -30 -164.5t-79 -124.5q-133 -133 -426 -133h-411v655h-484v-655h-235zM1118 193h154q164 0 231 65q64 64 64 168q0 46 -16 91t-46 75 q-38 38 -87 50.5t-113 12.5h-187v-462z" />
<glyph unicode="&#x40b;" horiz-adv-x="1337" d="M-20 1221v196h985l-31 -196h-381v-396q151 70 293 70q176 0 276 -92q92 -88 92 -246v-557h-235v494q0 112 -51 165q-49 52 -146 52q-103 0 -229 -56v-655h-236v1221h-337z" />
<glyph unicode="&#x40c;" horiz-adv-x="1249" d="M164 0v1417h235v-571h156q96 0 143 45q17 17 30 45t16 40.5t12 47.5l39 172q24 113 75 162q22 22 53.5 35.5t53 17.5t76.5 12l84 13l45 -162l-66 -17q-59 -13 -80 -34q-27 -27 -43 -93l-37 -147q-10 -41 -16 -61.5t-23.5 -53t-44.5 -57.5q-42 -39 -100 -57v-4 q51 -18 88 -52q63 -58 90 -161l64 -228q20 -76 47 -100q28 -28 86 -43l61 -19l-43 -165l-78 8q-157 14 -225 80q-8 8 -15 17t-12 16.5t-10.5 18.5t-8.5 18t-7 20t-6 18.5t-5.5 20t-4 18.5t-4 19.5t-3.5 17.5l-47 217q-24 102 -65 139q-47 43 -139 43h-136v-653h-235z M420 1604l418 270l102 -191l-451 -208z" />
<glyph unicode="&#x40e;" horiz-adv-x="1062" d="M-20 1417h262l229 -602q55 -145 84 -254q14 58 28.5 107.5t20.5 68.5t22.5 65t18.5 52l191 563h247l-385 -1071q-43 -123 -74 -188.5t-73 -104.5q-80 -74 -246 -98l-59 -8l-43 172l39 10q106 29 155 80q43 45 76 147l23 66l-115 -14zM238 1731l116 63q27 -53 80 -84 q48 -31 123 -31t123 31q50 31 80 86l117 -65q-24 -68 -74 -121q-87 -90 -244 -90q-159 0 -250 96q-43 43 -71 115z" />
<glyph unicode="&#x40f;" horiz-adv-x="1259" d="M164 0v1417h235v-1224h461v1224h236v-1417h-355v-360h-221v360h-356z" />
<glyph unicode="&#x410;" horiz-adv-x="1181" d="M-4 0l465 1417h272l453 -1417h-258l-115 373h-459l-114 -373h-244zM412 569h348q-110 372 -168 615q-52 -186 -180 -615z" />
<glyph unicode="&#x411;" horiz-adv-x="1226" d="M164 0v1417h852l-31 -192h-586v-377h197q58 0 95 -2.5t100.5 -12.5t118.5 -37.5t100 -70.5q114 -112 114 -311q0 -181 -100 -283q-42 -43 -96.5 -71t-117.5 -40t-112 -16t-112 -4h-422zM399 193h201q134 0 201 63q61 59 61 170t-61 168q-63 61 -201 61h-201v-462z" />
<glyph unicode="&#x412;" horiz-adv-x="1230" d="M164 0v1417h375q158 0 232 -14t140 -55q160 -103 160 -279q0 -115 -63 -195t-181 -114q85 -20 146 -59.5t93.5 -89.5t47 -101.5t14.5 -108.5q0 -207 -139.5 -304t-413.5 -97h-411zM399 193h209q129 0 193.5 63.5t64.5 165.5q0 76 -37 134t-96 75q-42 12 -131 12h-203 v-450zM399 836h195q70 0 106 10t68 43q55 58 55 141q0 62 -31.5 110.5t-82.5 67.5q-49 17 -134 17h-176v-389z" />
<glyph unicode="&#x413;" horiz-adv-x="964" d="M164 0v1417h770l-29 -192h-506v-1225h-235z" />
<glyph unicode="&#x414;" horiz-adv-x="1302" d="M10 188h92q125 246 183 521q45 209 59 546l6 162h756v-1229h145v-544h-221v356h-799v-356h-221v544zM315 188h555v1041h-323l-10 -164q-15 -250 -62 -453q-51 -216 -160 -424z" />
<glyph unicode="&#x415;" horiz-adv-x="1021" d="M164 0v1417h786l-30 -192h-517v-387h433v-193h-433v-444h568v-201h-807z" />
<glyph unicode="&#x416;" horiz-adv-x="1824" d="M31 147l39 11q74 17 106 49q31 31 51 110l62 220q29 103 86 157q38 38 88 54v4q-56 19 -94 57q-49 49 -80 160l-43 159q-19 69 -43 93q-32 29 -78 39l-68 16l47 162l78 -13q6 -1 30 -4.5t31.5 -5t27.5 -6t29.5 -8.5t24.5 -11t27 -16t23 -20q44 -42 65 -140l43 -190 q24 -99 62 -135q46 -43 131 -43h119v571h235v-571h119q85 0 131 43q17 16 30.5 43t18.5 44.5t12 47.5l43 190q21 97 66 140q11 11 23 20t27 16t24.5 11t29 8.5t26.5 6t32 5t30 4.5l78 13l47 -162l-67 -16q-46 -10 -78 -39q-24 -24 -43 -93l-43 -159q-31 -111 -80 -160 q-38 -38 -94 -57v-4q50 -16 88 -54q57 -54 86 -157l61 -220q20 -78 52 -110t106 -49l39 -11l-43 -165l-94 10q-74 7 -119.5 21t-81.5 50q-58 58 -84 191l-43 203q-21 114 -63 153q-45 43 -146 43h-90v-653h-235v653h-90q-101 0 -146 -43q-42 -39 -63 -153l-43 -203 q-26 -133 -84 -191q-36 -36 -81.5 -50t-119.5 -21l-94 -10z" />
<glyph unicode="&#x417;" horiz-adv-x="1130" d="M61 111l109 159q142 -106 319 -106q134 0 201 65q68 66 68 185q0 107 -64 166q-31 27 -76 41.5t-77 17t-82 2.5h-129v180h143q116 0 180 56q64 57 64 163q0 96 -60 152q-61 61 -182 61q-91 0 -158 -30q-54 -23 -104 -64l-111 156q79 57 174 88q104 35 238 35 q196 0 313 -84q146 -107 146 -293q0 -143 -90 -230q-61 -61 -148 -86q125 -22 201 -98q92 -92 92 -239q0 -172 -117 -289q-137 -139 -409 -139q-162 0 -281 45q-72 28 -160 86z" />
<glyph unicode="&#x418;" horiz-adv-x="1320" d="M164 0v1417h235v-821q0 -107 -14 -270q40 117 109 258l409 833h254v-1417h-235v813q0 119 12 287q-41 -118 -103 -246l-423 -854h-244z" />
<glyph unicode="&#x419;" horiz-adv-x="1320" d="M164 0v1417h235v-821q0 -107 -14 -270q40 117 109 258l409 833h254v-1417h-235v813q0 119 12 287q-41 -118 -103 -246l-423 -854h-244zM342 1722l117 64q27 -53 80 -84q48 -31 123 -31q74 0 122 31q50 31 80 86l117 -66q-23 -66 -74 -120q-88 -91 -243 -91 q-158 0 -250 97q-45 45 -72 114z" />
<glyph unicode="&#x41a;" horiz-adv-x="1249" d="M164 0v1417h235v-571h156q96 0 143 45q17 17 30 45t16 40.5t12 47.5l39 172q24 113 75 162q22 22 53.5 35.5t53 17.5t76.5 12l84 13l45 -162l-66 -17q-59 -13 -80 -34q-27 -27 -43 -93l-37 -147q-10 -41 -16 -61.5t-23.5 -53t-44.5 -57.5q-42 -39 -100 -57v-4 q51 -18 88 -52q63 -58 90 -161l64 -228q20 -76 47 -100q28 -28 86 -43l61 -19l-43 -165l-78 8q-157 14 -225 80q-8 8 -15 17t-12 16.5t-10.5 18.5t-8.5 18t-7 20t-6 18.5t-5.5 20t-4 18.5t-4 19.5t-3.5 17.5l-47 217q-24 102 -65 139q-47 43 -139 43h-136v-653h-235z" />
<glyph unicode="&#x41b;" horiz-adv-x="1216" d="M-20 147l40 11q78 21 125 65q26 24 44.5 57.5t29 61.5t19.5 81.5t12 80.5t10 96q27 288 35 586l6 231h752v-1417h-236v1225h-301l-10 -230q-13 -316 -49 -587q-6 -47 -12 -77.5t-19 -78t-35.5 -88t-54.5 -72.5q-84 -82 -250 -102l-63 -8z" />
<glyph unicode="&#x41c;" horiz-adv-x="1671" d="M123 0l129 1417h313l217 -803q28 -100 54 -241q15 105 51 237l223 807h313l125 -1417h-231l-66 879q-10 150 -10 245q-32 -150 -55 -227l-258 -897h-201l-235 858q-40 140 -62 268q0 -65 -14 -270l-62 -856h-231z" />
<glyph unicode="&#x41d;" horiz-adv-x="1282" d="M164 0v1417h235v-569h484v569h235v-1417h-235v655h-484v-655h-235z" />
<glyph unicode="&#x41e;" horiz-adv-x="1388" d="M102 711q0 343 161 535t431 192q146 0 260 -55.5t186 -154.5t109 -230.5t37 -288.5q0 -335 -153.5 -532t-427.5 -197q-148 0 -264 55t-189.5 153.5t-111.5 231t-38 291.5zM365 727q0 -283 79.5 -425t260.5 -142q161 0 240 127.5t79 408.5q0 107 -9.5 190.5t-32.5 155 t-59.5 117.5t-93 72t-131.5 26q-177 0 -255 -133.5t-78 -396.5z" />
<glyph unicode="&#x41f;" horiz-adv-x="1241" d="M164 0v1417h913v-1417h-235v1225h-443v-1225h-235z" />
<glyph unicode="&#x420;" horiz-adv-x="1136" d="M164 0v1417h377q149 0 223.5 -15t136.5 -52q94 -56 144.5 -148t50.5 -209q0 -136 -61.5 -240t-165.5 -158t-232 -54h-238v-541h-235zM399 729h181q130 0 192 62t62 190q0 117 -58 178q-67 70 -196 70h-181v-500z" />
<glyph unicode="&#x421;" horiz-adv-x="1161" d="M102 684q0 249 95 428q80 153 218.5 239.5t303.5 86.5q103 0 196 -29.5t156 -81.5l-108 -153q-109 79 -242 79q-91 0 -164 -44t-119 -126q-73 -128 -73 -370q0 -229 55 -348q45 -99 127.5 -150t187.5 -51q140 0 254 90l111 -150q-164 -124 -387 -124q-279 0 -449 204 q-162 197 -162 500z" />
<glyph unicode="&#x422;" horiz-adv-x="970" d="M31 1221v196h981l-31 -196h-356v-1221h-236v1221h-358z" />
<glyph unicode="&#x423;" horiz-adv-x="1062" d="M-20 1417h262l229 -602q55 -145 84 -254q14 58 28.5 107.5t20.5 68.5t22.5 65t18.5 52l191 563h247l-385 -1071q-43 -123 -74 -188.5t-73 -104.5q-80 -74 -246 -98l-59 -8l-43 172l39 10q106 29 155 80q43 45 76 147l23 66l-115 -14z" />
<glyph unicode="&#x424;" horiz-adv-x="1533" d="M102 750q0 269 142 407q135 133 387 133h18v211h236v-211h18q252 0 387 -133q142 -138 142 -407q0 -254 -138 -392q-137 -141 -389 -141h-20v-217h-236v217h-20q-252 0 -389 141q-138 138 -138 392zM352 739q0 -202 82 -286q70 -72 199 -72h26v745h-26q-128 0 -197 -69 q-84 -84 -84 -318zM874 381h27q129 0 199 72q82 84 82 286q0 234 -84 318q-69 69 -197 69h-27v-745z" />
<glyph unicode="&#x425;" horiz-adv-x="1105" d="M-20 0l434 760l-381 657h286l228 -438l223 438h279l-361 -641l438 -776h-282l-293 561l-283 -561h-288z" />
<glyph unicode="&#x426;" horiz-adv-x="1292" d="M164 0v1417h235v-1224h461v1224h236v-1224h145v-553h-221v360h-856z" />
<glyph unicode="&#x427;" horiz-adv-x="1187" d="M113 891v526h235v-461q0 -36 2 -60t13.5 -57.5t33.5 -56.5q48 -55 162 -55q113 0 229 49v641h236v-1417h-236v608q-135 -65 -305 -65q-184 0 -282 98q-53 53 -70.5 114t-17.5 136z" />
<glyph unicode="&#x428;" horiz-adv-x="1812" d="M164 0v1417h235v-1224h389v1224h236v-1224h389v1224h236v-1417h-1485z" />
<glyph unicode="&#x429;" horiz-adv-x="1851" d="M164 0v1417h235v-1224h392v1224h235v-1224h391v1224h236v-1224h147v-553h-221v360h-1415z" />
<glyph unicode="&#x42a;" horiz-adv-x="1435" d="M0 1417h643v-569h197q66 0 114.5 -4t121.5 -26t126 -64q69 -54 110.5 -139.5t41.5 -192.5q0 -89 -30 -164.5t-79 -124.5q-133 -133 -426 -133h-411v1225h-394zM643 193h154q164 0 231 65q64 64 64 168q0 46 -16 91t-46 75q-38 38 -87.5 50.5t-113.5 12.5h-186v-462z" />
<glyph unicode="&#x42b;" horiz-adv-x="1691" d="M164 0v1417h235v-569h185q66 0 114.5 -4t121.5 -26t126 -64q69 -54 110.5 -139.5t41.5 -192.5q0 -89 -30 -164.5t-79 -124.5q-133 -133 -426 -133h-399zM399 193h154q164 0 231 65q64 61 64 172q0 104 -62 162q-65 63 -223 63h-164v-462zM1292 0v1417h236v-1417h-236z " />
<glyph unicode="&#x42c;" horiz-adv-x="1191" d="M164 0v1417h235v-569h197q66 0 114.5 -4t121.5 -26t126 -64q69 -54 110.5 -139.5t41.5 -192.5q0 -89 -30 -164.5t-79 -124.5q-133 -133 -426 -133h-411zM399 193h154q164 0 231 65q64 64 64 168q0 46 -16 91t-46 75q-38 38 -87 50.5t-113 12.5h-187v-462z" />
<glyph unicode="&#x42d;" horiz-adv-x="1177" d="M61 111l109 163q53 -46 111 -73q79 -37 184 -37q80 0 139.5 19t108.5 77q100 114 100 371v20h-459v185h455v8q0 99 -25 188t-79 142q-79 79 -230 79q-100 0 -168 -30q-62 -26 -112 -66l-99 156q74 55 156 86q98 39 227 39q246 0 404 -158q59 -60 99 -130.5t59 -147.5 t26.5 -145.5t7.5 -151.5q0 -77 -6.5 -141.5t-24 -140.5t-56 -146.5t-95.5 -129.5q-162 -167 -440 -167q-136 0 -248 45q-82 33 -144 86z" />
<glyph unicode="&#x42e;" horiz-adv-x="1869" d="M164 0v1417h235v-569h228q4 46 13 94.5t27.5 110.5t53.5 123.5t82 109.5q147 152 385 152q122 0 215 -35.5t170 -114.5q194 -196 194 -575q0 -384 -202 -586q-81 -79 -171.5 -113t-203.5 -34q-228 0 -367 137q-97 94 -146.5 241.5t-49.5 296.5h-228v-655h-235zM879 709 q0 -108 6.5 -185t34 -162t77.5 -133q74 -69 195 -69q120 0 194 69q38 37 63 91t36.5 122t15.5 128.5t4 138.5t-4 138.5t-15.5 128.5t-36.5 121.5t-63 90.5q-74 69 -194 69q-121 0 -195 -69q-50 -48 -77.5 -133t-34 -161.5t-6.5 -184.5z" />
<glyph unicode="&#x42f;" horiz-adv-x="1241" d="M20 147l52 15q63 18 94 45q34 30 55 110l39 152q28 108 82 162q46 46 119 65v6q-125 25 -197 95q-94 94 -94 245q0 157 102 256q125 119 377 119h428v-1417h-235v602h-113q-129 0 -184 -51q-47 -43 -72 -154l-31 -147q-27 -132 -82 -187q-25 -24 -58.5 -38.5t-61 -20 t-62.5 -9.5q-8 -1 -12 -1l-103 -12zM422 1012q0 -110 63 -166q22 -19 49 -31.5t59 -17t51.5 -5.5t51.5 -1h146v438h-170q-131 0 -193 -62q-57 -53 -57 -155z" />
<glyph unicode="&#x430;" horiz-adv-x="1054" d="M92 281q0 179 130.5 269.5t381.5 90.5h70v55q0 97 -28.5 140t-115.5 43q-42 0 -89.5 -12.5t-85 -29.5t-68.5 -34.5t-49 -30.5l-17 -12l-100 162q118 74 221 107.5t219 33.5q248 0 316 -172q13 -32 15.5 -80t0.5 -174l-4 -297q-2 -107 14.5 -153.5t75.5 -86.5l-117 -143 q-104 41 -141 139q-60 -68 -128.5 -95.5t-156.5 -27.5q-172 0 -258 83.5t-86 224.5zM336 293q0 -74 38 -115t105 -41q54 0 103.5 28t83.5 77l4 245q-25 2 -41 2q-163 0 -228 -47t-65 -149z" />
<glyph unicode="&#x431;" horiz-adv-x="1112" d="M102 631q0 272 50 426q41 124 124 207q85 83 224 141l323 137l80 43l82 -182q-46 -32 -117 -62q-40 -18 -120 -49l-269 -110q-158 -65 -184 -258l-8 -64l10 -2q41 70 102 115q88 63 209 63q181 0 295 -137q117 -142 117 -389q0 -244 -123 -391q-127 -146 -338 -146 q-208 0 -332 146q-43 50 -69.5 110.5t-38 132.5t-14.5 128t-3 141zM352 504q0 -76 14 -154.5t40 -122.5q52 -86 155 -86q104 0 156 86q53 89 53 277q0 72 -12.5 151.5t-40.5 126.5q-52 86 -156 86q-103 0 -155 -86q-54 -90 -54 -278z" />
<glyph unicode="&#x432;" horiz-adv-x="1077" d="M154 0v1036h430q186 0 268 -82q68 -68 68 -180q0 -96 -58 -160q-43 -47 -102 -65q80 -15 135 -70q70 -70 70 -180q0 -136 -84 -215q-96 -84 -265 -84h-462zM377 152h164q101 0 147 41q41 37 41 108q0 94 -53 133q-42 31 -135 31h-164v-313zM377 612h145q94 0 137 41 q37 35 37 97q0 68 -39 102q-37 33 -127 33h-153v-273z" />
<glyph unicode="&#x433;" horiz-adv-x="841" d="M154 0v1036h647l-27 -168h-397v-868h-223z" />
<glyph unicode="&#x434;" horiz-adv-x="1073" d="M10 164h80q88 156 135 346q39 163 43 375l4 151h631v-872h129v-457h-209v293h-604v-293h-209v457zM291 164h389v708h-231l-5 -96q-6 -175 -43 -325q-37 -144 -110 -287z" />
<glyph unicode="&#x435;" horiz-adv-x="1050" d="M102 518q0 136 30.5 232.5t98.5 173.5q122 139 318 139q167 0 285 -107q69 -63 102 -168t33 -282v-47h-619v-19q0 -58 12 -107t39.5 -93.5t79.5 -69.5t125 -25q140 0 258 103l88 -137q-164 -138 -372 -138q-220 0 -349 147t-129 398zM352 627h383q0 125 -50.5 196.5 t-135.5 71.5q-95 0 -146 -70.5t-51 -197.5z" />
<glyph unicode="&#x436;" horiz-adv-x="1460" d="M20 133l27 6q55 11 84 37q9 7 16 18.5t9.5 16.5t9 24.5t6.5 20.5l43 129q27 80 64 117q39 34 77 45v4q-55 16 -86 47q-15 14 -25 30.5t-13.5 27t-10.5 32.5l-37 119q-15 46 -30 59q-19 19 -58 27l-53 10l41 154l96 -8q90 -7 139 -56q46 -46 62 -125l25 -114 q14 -71 38 -95q32 -32 95 -32h79v391l224 43v-434h80q62 0 94 32q26 26 39 95l24 114q16 79 62 125q49 49 139 56l96 8l41 -154l-53 -10q-38 -8 -57 -27q-16 -14 -31 -59l-37 -119q-7 -22 -10.5 -32.5t-13.5 -27t-25 -30.5q-31 -31 -86 -47v-4q40 -12 78 -45q35 -35 63 -117 l43 -129q2 -5 5.5 -17t6 -18.5t7 -15.5t10 -16t12.5 -13q29 -26 84 -37l27 -6l-41 -153l-78 6q-129 8 -184 61q-43 41 -64 137l-24 123q0 1 -3 14.5t-3.5 16.5t-3.5 15t-5 17l-6 15t-7.5 16t-9.5 13.5t-12 13.5q-33 31 -104 31h-53v-459h-224v459h-53q-71 0 -104 -31 q-7 -7 -13 -14.5t-10.5 -17.5t-7.5 -17t-6.5 -19t-4.5 -17.5t-3.5 -19t-3.5 -16.5l-25 -123q-21 -97 -63 -137q-55 -53 -185 -61l-78 -6z" />
<glyph unicode="&#x437;" horiz-adv-x="917" d="M41 102l98 146q50 -44 103 -68q71 -35 151 -35q91 0 137 43q48 45 48 113q0 69 -43 109q-49 45 -154 45h-111v172h119q90 0 133 41q37 34 37 90q0 57 -35 90q-46 43 -133 43q-61 0 -133 -27q-35 -13 -94 -53l-90 141q72 51 143 76q92 35 215 35q188 0 285 -92 q80 -76 80 -193q0 -101 -72 -170q-42 -42 -100 -59q75 -18 131 -74q69 -69 69 -174q0 -134 -92 -223q-108 -105 -315 -105q-170 0 -283 64q-43 24 -94 65z" />
<glyph unicode="&#x438;" d="M154 0v1020l223 43v-543q0 -93 -8 -233h4q51 139 110 241l277 494l233 41v-1063h-223v471q0 148 10 268h-4q-41 -117 -104 -229l-285 -510h-233z" />
<glyph unicode="&#x439;" d="M154 0v1020l223 43v-543q0 -93 -8 -233h4q51 139 110 241l277 494l233 41v-1063h-223v471q0 148 10 268h-4q-41 -117 -104 -229l-285 -510h-233zM244 1368l112 64q28 -39 43 -56q63 -67 176 -67q104 0 168 67q15 17 43 56l113 -64q-23 -61 -57 -101.5t-58 -56.5 q-83 -63 -213 -63t-213 63q-13 9 -30 25t-42.5 53t-41.5 80z" />
<glyph unicode="&#x43a;" horiz-adv-x="1060" d="M154 0v1018l223 43v-434h96q83 0 115 30q28 28 43 97l26 116q16 77 56 119q28 30 64.5 41.5t101.5 18.5l75 8l41 -154l-51 -10q-38 -9 -57 -25q-21 -19 -37 -69l-33 -111q-16 -59 -51 -94q-32 -32 -82 -43v-4q39 -9 76 -41q39 -39 61 -111l51 -153q15 -46 39 -70 q19 -19 68 -31l41 -8l-41 -153l-70 6q-51 4 -74 7t-60 16.5t-62 37.5q-45 45 -64 137l-33 146q-15 75 -47 102q-31 27 -100 27h-92v-459h-223z" />
<glyph unicode="&#x43b;" horiz-adv-x="1083" d="M20 133l46 10q61 15 100 54q13 13 23 28.5t17 38t11.5 38.5t9 48t6 47t5 54.5t4.5 52.5q12 120 26 338l13 194h649v-1036h-223v868h-234l-8 -112q-6 -87 -19 -240q-20 -201 -30 -264q-19 -128 -80 -189q-29 -28 -72.5 -45.5t-71.5 -22.5t-71 -9l-55 -6z" />
<glyph unicode="&#x43c;" horiz-adv-x="1402" d="M102 0l103 1036h274l166 -544q6 -22 18 -59.5t20 -67t15 -64.5q1 5 54 186l170 549h274l104 -1036h-210l-52 604q-4 70 -4 174h-8q-21 -106 -41 -160l-203 -618h-178l-188 600q-32 97 -47 178h-9q0 -125 -4 -166l-47 -612h-207z" />
<glyph unicode="&#x43d;" horiz-adv-x="1103" d="M154 0v1018l223 43v-426h350v383l223 43v-1061h-223v467h-350v-467h-223z" />
<glyph unicode="&#x43e;" horiz-adv-x="1099" d="M92 518q0 249 123.5 397t329.5 148q218 0 340.5 -148.5t122.5 -398.5q0 -251 -124 -397t-335 -146t-334 147t-123 398zM342 535q0 -219 51.5 -306.5t157.5 -87.5q102 0 154.5 89.5t52.5 283.5q0 142 -27 228.5t-72 119.5t-114 33q-106 0 -154.5 -85.5t-48.5 -274.5z" />
<glyph unicode="&#x43f;" horiz-adv-x="1085" d="M154 0v1036h778v-1036h-223v868h-332v-868h-223z" />
<glyph unicode="&#x440;" horiz-adv-x="1126" d="M143 1026l207 37q17 -73 17 -123q105 123 276 123q152 0 252 -100q139 -139 139 -433q0 -311 -149 -456q-105 -101 -267 -101q-132 0 -243 86q6 -71 6 -141v-303l-217 -55v1208q0 164 -21 258zM381 256q96 -92 207 -92q68 0 114 43q32 29 52 69.5t27.5 89.5t9.5 79t2 73 q0 233 -72 307q-44 47 -117 47q-122 0 -223 -106v-510z" />
<glyph unicode="&#x441;" horiz-adv-x="935" d="M102 506q0 136 38.5 245t103.5 175.5t145.5 101.5t169.5 35q87 0 153.5 -25t133.5 -88l-113 -149q-89 80 -174 80q-113 0 -164 -105q-43 -87 -43 -289q0 -206 70 -282q54 -60 137 -60q106 0 209 103l106 -137q-72 -72 -150 -105t-181 -33q-211 0 -326 140.5t-115 392.5z " />
<glyph unicode="&#x442;" horiz-adv-x="778" d="M-10 868v168h798l-28 -168h-268v-868h-224v868h-278z" />
<glyph unicode="&#x443;" horiz-adv-x="989" d="M10 1020l230 39l190 -631q30 -105 55 -231h4q36 145 76 278l172 561h242l-383 -1106q-57 -167 -141 -256q-46 -47 -100.5 -71t-145.5 -45l-74 145q118 32 172 90q70 70 109 207h-72q-37 139 -88 293z" />
<glyph unicode="&#x444;" horiz-adv-x="1513" d="M92 535q0 262 113 405q98 121 244 121q112 0 196 -74v471l223 51v-522q84 74 197 74q146 0 244 -121q112 -142 112 -405q0 -277 -104 -422q-101 -140 -266 -140q-109 0 -183 62v-445h-223v445q-74 -62 -182 -62q-165 0 -266 140q-105 147 -105 422zM330 535 q0 -133 9.5 -203t35.5 -109q45 -69 129 -69q79 0 141 57v604q-71 66 -147 66q-74 0 -119 -62q-28 -38 -38.5 -102.5t-10.5 -181.5zM868 211q62 -57 142 -57q84 0 129 69q26 39 35.5 109t9.5 203q0 117 -10.5 181.5t-38.5 102.5q-45 62 -119 62q-77 0 -148 -66v-604z" />
<glyph unicode="&#x445;" horiz-adv-x="976" d="M-20 0l385 561l-299 445l243 49q114 -190 189 -336q24 56 83 171.5t81 145.5h262l-306 -471l379 -565h-282q-26 41 -117.5 198.5t-108.5 188.5q-29 -58 -112 -201t-113 -186h-284z" />
<glyph unicode="&#x446;" horiz-adv-x="1101" d="M154 0v1018l223 43v-893h321v850l224 43v-893h129v-461h-209v293h-688z" />
<glyph unicode="&#x447;" horiz-adv-x="1001" d="M92 672v346l223 43v-365q0 -26 1.5 -42t11 -41t28.5 -42q37 -32 113 -32q91 0 156 34v445l223 43v-1061h-223v414q-108 -43 -213 -43q-164 0 -246 82q-47 47 -60.5 100t-13.5 119z" />
<glyph unicode="&#x448;" horiz-adv-x="1542" d="M154 0v1018l223 43v-893h282v850l224 43v-893h282v850l224 43v-1061h-1235z" />
<glyph unicode="&#x449;" horiz-adv-x="1568" d="M154 0v1018l223 43v-893h282v850l224 43v-893h282v850l224 43v-893h129v-461h-209v293h-1155z" />
<glyph unicode="&#x44a;" horiz-adv-x="1132" d="M0 1036h506v-383h149q44 0 75 -2t79.5 -10.5t91 -30.5t76.5 -57q84 -86 84 -231q0 -144 -80 -228q-52 -53 -127.5 -73.5t-179.5 -20.5h-391v868h-265zM506 160h129q102 0 147 45q41 41 41 119q0 84 -43 125q-47 45 -151 45h-123v-334z" />
<glyph unicode="&#x44b;" horiz-adv-x="1458" d="M154 0v1018l223 43v-408h141q44 0 75 -2t79.5 -10.5t91 -30.5t76.5 -57q84 -86 84 -231q0 -144 -80 -228q-52 -53 -127.5 -73.5t-179.5 -20.5h-383zM377 160h117q104 0 151 45q41 39 41 117q0 90 -47 131q-43 41 -145 41h-117v-334zM1081 0v1018l224 43v-1061h-224z" />
<glyph unicode="&#x44c;" horiz-adv-x="1003" d="M154 0v1018l223 43v-408h149q44 0 75 -2t79.5 -10.5t91 -30.5t76.5 -57q84 -86 84 -231q0 -144 -80 -228q-52 -53 -127.5 -73.5t-179.5 -20.5h-391zM377 160h129q102 0 147 45q41 41 41 119q0 84 -43 125q-47 45 -151 45h-123v-334z" />
<glyph unicode="&#x44d;" horiz-adv-x="956" d="M61 113l109 133q17 -17 36 -32t31 -23t13 -9q64 -41 147 -41q104 0 156 54q61 63 61 233v31h-297v168h297v18q0 128 -63 195q-53 55 -148 55q-65 0 -124 -29q-42 -19 -80 -57l-109 135q53 49 135 84t191 35q190 0 301 -111q147 -145 147 -442q0 -278 -129 -414 q-116 -123 -323 -123q-127 0 -224 47q-67 33 -127 93z" />
<glyph unicode="&#x44e;" horiz-adv-x="1515" d="M154 0v1020l223 43v-434h166q3 94 38 177.5t91 141.5q115 115 301 115q192 0 309 -121q141 -141 141 -428q0 -289 -135 -426q-113 -115 -301 -115q-201 0 -315 119q-125 130 -131 369h-164v-461h-223zM776 518q0 -128 15.5 -207t56.5 -121q49 -49 125 -49t125 49 q40 42 55.5 120.5t15.5 207.5t-15.5 207.5t-55.5 120.5q-49 49 -125 49t-125 -49q-41 -42 -56.5 -121t-15.5 -207z" />
<glyph unicode="&#x44f;" horiz-adv-x="1052" d="M31 133l32 8q50 13 80 37q26 24 45 82l31 92q20 60 53 90q38 38 86 47v5q-92 8 -157 73q-66 70 -66 178q0 125 80 201q95 90 301 90h383v-1036h-223v410h-94q-74 0 -109 -33q-6 -6 -11 -12t-9 -14t-7 -13.5t-6 -15.5t-4.5 -14t-4 -14.5t-3.5 -12.5l-29 -103 q-26 -92 -61 -127q-25 -25 -66 -40.5t-62.5 -18.5t-59.5 -6l-80 -6zM371 725q0 -72 41 -111q48 -45 137 -45h127v303h-129q-95 0 -135 -38q-41 -39 -41 -109z" />
<glyph unicode="&#x451;" horiz-adv-x="1050" d="M102 518q0 136 30.5 232.5t98.5 173.5q122 139 318 139q167 0 285 -107q69 -63 102 -168t33 -282v-47h-619v-19q0 -58 12 -107t39.5 -93.5t79.5 -69.5t125 -25q140 0 258 103l88 -137q-164 -138 -372 -138q-220 0 -349 147t-129 398zM215 1327q0 57 37.5 96t91.5 39 t92.5 -39t38.5 -96t-38.5 -97t-92.5 -40t-91.5 40t-37.5 97zM352 627h383q0 125 -50.5 196.5t-135.5 71.5q-95 0 -146 -70.5t-51 -197.5zM621 1327q0 57 38.5 96t94.5 39q53 0 91 -39t38 -96t-38.5 -97t-92.5 -40t-92.5 40t-38.5 97z" />
<glyph unicode="&#x452;" horiz-adv-x="1185" d="M82 1139v131h113v239l223 -34v-205h373l-48 -131h-325v-119l-6 -111q144 129 323 129q141 0 215 -77q72 -76 72 -236v-586q0 -84 -4.5 -142.5t-26.5 -137t-63 -135.5q-80 -109 -201 -154l-98 131q69 43 108 104q40 60 51 119t11 158v602q0 33 -0.5 47.5t-8.5 41t-24 42.5 q-33 33 -96 33q-62 0 -138 -39q-68 -35 -114 -86v-723h-223v1139h-113z" />
<glyph unicode="&#x453;" horiz-adv-x="841" d="M154 0v1036h647l-27 -168h-397v-868h-223zM215 1276l418 270l102 -190l-450 -209z" />
<glyph unicode="&#x454;" horiz-adv-x="956" d="M92 510q0 296 148 442q111 111 301 111q108 0 190 -35t135 -84l-108 -135q-38 38 -80 57q-59 29 -125 29q-94 0 -147 -55q-64 -68 -64 -195v-29h297v-167h-297v-21q0 -170 61 -233q52 -54 156 -54q84 0 148 41q1 1 12.5 9t30.5 23t36 32l109 -133q-60 -60 -127 -93 q-97 -47 -223 -47q-208 0 -324 123q-129 136 -129 414z" />
<glyph unicode="&#x455;" horiz-adv-x="970" d="M72 86l80 162q189 -109 335 -109q74 0 121 41t47 105q0 59 -39.5 92.5t-128.5 52.5l-125 27q-117 25 -182 100t-65 184q0 146 106.5 234t278.5 88q173 0 342 -90l-74 -156q-141 78 -254 78q-73 0 -115.5 -33t-42.5 -92q0 -49 31 -77t109 -48l129 -33q264 -67 264 -288 q0 -157 -116.5 -255t-303.5 -98q-190 0 -397 115z" />
<glyph unicode="&#x456;" horiz-adv-x="555" d="M131 1339q0 63 43.5 107.5t106.5 44.5q61 0 104 -44t43 -108q0 -62 -44.5 -105.5t-107.5 -43.5q-61 0 -103 43.5t-42 105.5zM166 0v1020l223 41v-1061h-223z" />
<glyph unicode="&#x457;" horiz-adv-x="555" d="M25 1327q0 57 32.5 96t79.5 39q45 0 79 -39.5t34 -95.5t-34 -96.5t-79 -40.5q-47 0 -79.5 40t-32.5 97zM166 0v1020l223 41v-1061h-223zM305 1327q0 56 34.5 95.5t80.5 39.5t78 -39t32 -96t-32.5 -97t-79.5 -40q-45 0 -79 40.5t-34 96.5z" />
<glyph unicode="&#x458;" horiz-adv-x="555" d="M25 -303q80 56 109.5 127t29.5 199v997l223 41v-1036q0 -215 -76 -312q-76 -95 -194 -147zM127 1339q0 62 44 107t105 45t105.5 -44t44.5 -104q0 -64 -44.5 -108.5t-107.5 -44.5q-62 0 -104.5 43t-42.5 106z" />
<glyph unicode="&#x459;" horiz-adv-x="1556" d="M20 133l46 10q61 15 100 54q13 13 23 28.5t17 38t11.5 38.5t9 48t6 47t5 54.5t4.5 52.5q12 120 26 338l13 194h649v-383h149q44 0 75 -2t79.5 -10.5t91 -30.5t76.5 -57q84 -86 84 -231q0 -144 -80 -228q-52 -53 -127.5 -73.5t-179.5 -20.5h-391v868h-234l-8 -112 q-6 -87 -19 -240q-20 -201 -30 -264q-19 -128 -80 -189q-29 -28 -72.5 -45.5t-71.5 -22.5t-71 -9l-55 -6zM930 160h129q102 0 147 45q41 41 41 119q0 84 -43 125q-47 45 -151 45h-123v-334z" />
<glyph unicode="&#x45a;" horiz-adv-x="1576" d="M154 0v1018l223 43v-408h350v365l223 43v-408h150q44 0 74.5 -2t79 -10.5t91 -30.5t76.5 -57q84 -86 84 -231q0 -144 -80 -228q-52 -53 -127.5 -73.5t-179.5 -20.5h-391v494h-350v-494h-223zM950 160h129q103 0 148 45q41 41 41 119q0 84 -43 125q-47 45 -152 45h-123 v-334z" />
<glyph unicode="&#x45b;" horiz-adv-x="1187" d="M82 1139v131h113v239l223 -34v-205h373l-48 -131h-325v-119l-4 -111q52 49 141 90q91 39 178 39q65 0 123 -20.5t94 -56.5q25 -25 41.5 -56.5t23 -66.5t8 -58t1.5 -55v-725h-223v684q0 34 -0.5 48t-8.5 40t-24 43q-31 33 -92 33q-68 0 -141 -39q-67 -36 -117 -86v-723 h-223v1139h-113z" />
<glyph unicode="&#x45c;" horiz-adv-x="1060" d="M154 0v1018l223 43v-434h96q83 0 115 30q28 28 43 97l26 116q16 77 56 119q28 30 64.5 41.5t101.5 18.5l75 8l41 -154l-51 -10q-38 -9 -57 -25q-21 -19 -37 -69l-33 -111q-16 -59 -51 -94q-32 -32 -82 -43v-4q39 -9 76 -41q39 -39 61 -111l51 -153q15 -46 39 -70 q19 -19 68 -31l41 -8l-41 -153l-70 6q-51 4 -74 7t-60 16.5t-62 37.5q-45 45 -64 137l-33 146q-15 75 -47 102q-31 27 -100 27h-92v-459h-223zM317 1276l418 270l103 -190l-451 -209z" />
<glyph unicode="&#x45e;" horiz-adv-x="989" d="M10 1020l230 39l190 -631q30 -105 55 -231h4q36 145 76 278l172 561h242l-383 -1106q-57 -167 -141 -256q-46 -47 -100.5 -71t-145.5 -45l-74 145q118 32 172 90q70 70 109 207h-72q-37 139 -88 293zM170 1434l113 63q24 -34 43 -55q64 -68 176 -68q103 0 168 68 q19 21 43 55l112 -63q-23 -61 -57 -101.5t-57 -56.5q-85 -64 -213 -64t-213 64q-13 9 -30.5 25t-43 53t-41.5 80z" />
<glyph unicode="&#x45f;" horiz-adv-x="1075" d="M154 0v1018l223 43v-893h321v850l224 43v-1061h-283v-305h-201v305h-284z" />
<glyph unicode="&#x490;" horiz-adv-x="964" d="M164 0v1417h557v320h213v-512h-535v-1225h-235z" />
<glyph unicode="&#x491;" horiz-adv-x="866" d="M154 0v1036h456v295h205v-463h-438v-868h-223z" />
<glyph unicode="&#x2000;" horiz-adv-x="937" />
<glyph unicode="&#x2001;" horiz-adv-x="1874" />
<glyph unicode="&#x2002;" horiz-adv-x="937" />
<glyph unicode="&#x2003;" horiz-adv-x="1874" />
<glyph unicode="&#x2004;" horiz-adv-x="624" />
<glyph unicode="&#x2005;" horiz-adv-x="468" />
<glyph unicode="&#x2006;" horiz-adv-x="312" />
<glyph unicode="&#x2007;" horiz-adv-x="312" />
<glyph unicode="&#x2008;" horiz-adv-x="234" />
<glyph unicode="&#x2009;" horiz-adv-x="374" />
<glyph unicode="&#x200a;" horiz-adv-x="104" />
<glyph unicode="&#x2010;" horiz-adv-x="653" d="M102 453v209h449v-209h-449z" />
<glyph unicode="&#x2011;" horiz-adv-x="653" d="M102 453v209h449v-209h-449z" />
<glyph unicode="&#x2012;" horiz-adv-x="653" d="M102 453v209h449v-209h-449z" />
<glyph unicode="&#x2013;" horiz-adv-x="1193" d="M102 477v178h990v-178h-990z" />
<glyph unicode="&#x2014;" horiz-adv-x="1656" d="M102 477v178h1452v-178h-1452z" />
<glyph unicode="&#x2018;" horiz-adv-x="546" d="M102 1100q0 120 75 220.5t196 143.5l82 -102q-62 -20 -101 -60t-39 -81q0 -15 14 -26t33.5 -20.5t39 -23.5t33.5 -43.5t14 -71.5q0 -68 -47.5 -116t-114.5 -48q-80 0 -132.5 64.5t-52.5 163.5z" />
<glyph unicode="&#x2019;" horiz-adv-x="546" d="M92 958q62 20 100.5 60.5t38.5 85.5q0 9 -14 22t-31 21q-88 38 -88 137q0 69 47 116.5t115 47.5q80 0 132 -63.5t52 -161.5q0 -129 -79 -234q-71 -90 -189 -131z" />
<glyph unicode="&#x201a;" horiz-adv-x="546" d="M92 -193q62 20 100.5 61t38.5 85q0 10 -12 22t-33 21q-40 15 -64 51.5t-24 85.5q0 69 47 116.5t115 47.5q80 0 132 -63t52 -162q0 -127 -74.5 -225t-195.5 -142z" />
<glyph unicode="&#x201c;" horiz-adv-x="985" d="M102 1100q0 122 80 229q73 93 189 135l84 -102q-64 -19 -103 -58.5t-39 -84.5q0 -13 14 -23.5t34 -21t40 -25t34 -44t14 -69.5q0 -68 -47.5 -116t-116.5 -48q-80 0 -131.5 64t-51.5 164zM543 1100q0 128 78 229q69 91 190 135l82 -102q-62 -19 -100.5 -58.5t-38.5 -84.5 q0 -7 3 -12.5t11.5 -12t13.5 -9.5t19.5 -11t19.5 -11q68 -37 68 -127q0 -68 -48.5 -116t-115.5 -48q-80 0 -131 64t-51 164z" />
<glyph unicode="&#x201d;" horiz-adv-x="987" d="M92 958q64 20 102.5 60.5t38.5 85.5q0 8 -15 22.5t-30 20.5q-88 36 -88 137q0 69 46.5 116.5t115.5 47.5q80 0 132 -63.5t52 -161.5q0 -124 -75 -224.5t-195 -140.5zM532 958q64 20 102 60.5t38 85.5q0 8 -15 22.5t-28 20.5q-88 37 -88 137q0 69 46 116.5t115 47.5 q80 0 131.5 -63.5t51.5 -161.5q0 -130 -74.5 -227t-194.5 -138z" />
<glyph unicode="&#x201e;" horiz-adv-x="987" d="M92 -193q62 20 100.5 61t38.5 85q0 10 -12 22t-33 21q-40 15 -64 51.5t-24 85.5q0 69 47 116.5t115 47.5q80 0 132 -63t52 -162q0 -127 -74.5 -225t-195.5 -142zM532 -193q62 20 101 61.5t39 84.5q0 10 -12 22t-33 21q-40 15 -64 51.5t-24 85.5q0 69 46.5 116.5 t114.5 47.5q80 0 132.5 -63t52.5 -162q0 -127 -75 -225t-196 -142z" />
<glyph unicode="&#x2026;" horiz-adv-x="1560" d="M123 137q0 68 46 115t112 47q68 0 115.5 -47.5t47.5 -114.5q0 -69 -47 -118.5t-112 -49.5q-67 0 -114.5 49.5t-47.5 118.5zM621 137q0 68 45.5 115t111.5 47q68 0 115 -47.5t47 -114.5q0 -69 -47 -118.5t-113 -49.5q-67 0 -113 49t-46 119zM1116 137q0 67 47 114.5 t113 47.5t114 -47.5t48 -114.5q0 -69 -47.5 -118.5t-112.5 -49.5q-67 0 -114.5 49.5t-47.5 118.5z" />
<glyph unicode="&#x202f;" horiz-adv-x="374" />
<glyph unicode="&#x2039;" horiz-adv-x="583" d="M61 504l310 465l151 -103l-235 -362l235 -361l-151 -102z" />
<glyph unicode="&#x203a;" horiz-adv-x="585" d="M61 143l240 361l-240 362l154 103l309 -465l-309 -463z" />
<glyph unicode="&#x205f;" horiz-adv-x="468" />
<glyph unicode="&#x20ac;" horiz-adv-x="1284" d="M82 457v178h207q0 9 -1 26.5t-1 26.5q0 37 4 103h-209v178h240q20 76 59 149q80 153 218.5 239.5t303.5 86.5q175 0 291 -70l-47 -196q-109 79 -242 79q-91 0 -163.5 -44t-118.5 -126q-34 -67 -48 -118h455v-178h-479q-2 -25 -2 -76q0 -15 1 -41.5t1 -38.5h479v-178h-459 q8 -34 33 -95q45 -99 127.5 -149.5t188.5 -50.5q140 0 254 90l49 -191q-78 -44 -148.5 -64t-177.5 -20q-277 0 -448 205q-95 118 -136 275h-231z" />
<glyph unicode="&#x2122;" horiz-adv-x="2017" d="M61 1284v166h687v-166h-252v-678h-183v678h-252zM930 606v844h260l223 -594l221 594h260v-844h-182v617h-10l-232 -617h-118l-230 613l-10 2v-615h-182z" />
<glyph unicode="&#x25fc;" horiz-adv-x="1054" d="M0 0v1055h1055v-1055h-1055z" />
</font>
</defs>
</svg>
